<svg xmlns="http://www.w3.org/2000/svg" viewBox="0 0 300 300"><defs><style>.cls-1{fill:none;}.cls-2{fill:#fff;}</style></defs><title>phoneRecurso 4300px</title><g id="Capa_2" data-name="Capa 2"><g id="iconos"><rect class="cls-1" width="300" height="300"/><path class="cls-2" d="M231.27,21H68.73a2.59,2.59,0,0,0-2.58,2.58V276.42A2.59,2.59,0,0,0,68.73,279H231.27a2.59,2.59,0,0,0,2.58-2.58V23.58A2.59,2.59,0,0,0,231.27,21ZM152.58,264.81h-5.16a7.74,7.74,0,1,1,0-15.48h5.16a7.74,7.74,0,0,1,0,15.48ZM221,232.56a2.59,2.59,0,0,1-2.58,2.58H81.63a2.59,2.59,0,0,1-2.58-2.58V44.22a2.59,2.59,0,0,1,2.58-2.58H218.37A2.59,2.59,0,0,1,221,44.22Z"/></g></g></svg>