<svg xmlns="http://www.w3.org/2000/svg" viewBox="0 0 300 300"><defs><style>.cls-1{fill:none;}.cls-2{fill:#fff;}</style></defs><title>searchRecurso 6300px</title><g id="Capa_2" data-name="Capa 2"><g id="iconos"><rect class="cls-1" width="300" height="300"/><path class="cls-2" d="M208.18,59a105.5,105.5,0,1,0-6.66,155.28l4.68,4.67-2.73,2.73a3.86,3.86,0,0,0,0,5.46l43.66,43.67a3.86,3.86,0,0,0,5.46,0l18.2-18.2a3.86,3.86,0,0,0,0-5.46l-43.67-43.66a3.86,3.86,0,0,0-5.46,0l-2.73,2.73-4.67-4.68A105.49,105.49,0,0,0,208.18,59ZM83.54,183.61a70.76,70.76,0,1,1,100.07,0A70.77,70.77,0,0,1,83.54,183.61Z"/></g></g></svg>