<svg xmlns="http://www.w3.org/2000/svg" viewBox="0 0 300 300"><defs><style>.cls-1,.cls-4{fill:none;}.cls-2,.cls-3{fill:#fff;}.cls-3,.cls-4{stroke:#fff;stroke-miterlimit:10;stroke-width:6px;}</style></defs><title>dateRecurso 10300px</title><g id="Capa_2" data-name="Capa 2"><g id="iconos"><rect class="cls-1" width="300" height="300"/><path class="cls-2" d="M244,61.67v188H56v-188H244m3.33-6H52.67A2.66,2.66,0,0,0,50,58.33V253a2.67,2.67,0,0,0,2.67,2.67H247.33A2.67,2.67,0,0,0,250,253V58.33a2.66,2.66,0,0,0-2.67-2.66Z"/><rect class="cls-3" x="196" y="44.33" width="26.67" height="26.67" rx="2"/><rect class="cls-3" x="76" y="45.67" width="26.67" height="26.67" rx="2"/><line class="cls-4" x1="50" y1="95.67" x2="250" y2="95.67"/><path class="cls-4" d="M92,126.33H208a2,2,0,0,1,2,2v94a4,4,0,0,1-4,4H94a4,4,0,0,1-4-4v-94a2,2,0,0,1,2-2Z"/><line class="cls-4" x1="130.67" y1="126.33" x2="130.67" y2="226.33"/><line class="cls-4" x1="169.33" y1="126.33" x2="169.33" y2="226.33"/><line class="cls-4" x1="210" y1="160.78" x2="90" y2="160.78"/><line class="cls-4" x1="210" y1="193" x2="90" y2="193"/></g></g></svg>