<svg xmlns="http://www.w3.org/2000/svg" viewBox="0 0 430 125"><defs><style>.cls-1{fill:none;}.cls-2,.cls-3{fill:#fff;}.cls-3{font-size:50px;stroke:#fff;stroke-miterlimit:10;font-family:CenturyGothic, Century Gothic;}</style></defs><title>icon-logo-web-BWRecurso 39300px</title><g id="Capa_2" data-name="Capa 2"><g id="iconos"><rect class="cls-1" width="430" height="125"/><path class="cls-2" d="M98,114s-9.68-3.64-19.78-16.32A94.67,94.67,0,0,1,62.38,67a119.51,119.51,0,0,1-4-28.19s3.13,7.92,11.87,7.92c10.14,0,32.65-33.14,32.65-33.14s-16.33,29.67-18.8,49c-.74,5.8.47,22.14,5,34.62C93.39,109.16,98,114,98,114Z"/><path class="cls-2" d="M56,41.26S49,33.5,46.06,31.37a52.63,52.63,0,0,0-12.29-5.89,2.18,2.18,0,0,0-2.9,2.13c.85,5.25,2.58,18.65,2.58,18.65S35,61.62,36.27,66.59a5,5,0,0,0,2.54,3.76c3.23,2.08,11.24,4,13.93,5.54,4.11,2.41,15.08,11.87,15.08,11.87S58.76,76.39,55.46,73.41C52.58,70.82,40.62,66,40.62,66s-2-11.87-2.48-17.8c-.29-3.49-2.47-16.82-2.47-16.82s9.19,3.28,10.88,4C49.19,36.38,56,41.26,56,41.26Z"/><path class="cls-2" d="M40.12,83.8a114.47,114.47,0,0,1-16.32-3S21.82,69,21.33,63c-.26-3.1-2-14-2.4-16.34a18.26,18.26,0,0,0-.62-4.58c-.12-.35,2.28-.85,2.28-.85L17,40.32a2.17,2.17,0,0,0-2.89,2.12c.84,5.25,2.58,18.66,2.58,18.66s1.52,15.36,2.81,20.33c.28,1.1.18,2.77,2.55,3.76,3.78,1.58,7.72,1.58,14.66,1.58,12.61,0,25.23,4.94,25.23,4.94S46.29,84.47,40.12,83.8Z"/><path class="cls-2" d="M49.27,78.36c-3.53-1.57-16.57-5-16.57-5s-2-11.87-2.47-17.8C30,53,28.76,45,28.13,41.06h0s-.36-5.73-1.35-7.21a9.61,9.61,0,0,1,1.73-.5s-2.48-.41-2.65-.45A2.18,2.18,0,0,0,23,35c.84,5.25,2.58,18.65,2.58,18.65S27.07,69,28.35,74a3.79,3.79,0,0,0,3,3.26c5.52,1.58,11.7,2.08,14.92,3.07,6.92,2.13,18.54,8.41,18.54,8.41S53.72,80.34,49.27,78.36Z"/><path class="cls-2" d="M102.54,11.63a2.17,2.17,0,0,1,3.51.74c1.4,5.13,5.36,18.05,5.36,18.05s5,14.62,5.85,19.68a5.06,5.06,0,0,1-.77,4.47C114.41,57.8,108.77,63,107,65.51c-2.75,3.9-9.71,16.9-9.71,16.9s5.12-15.31,6.9-19.38c1.55-3.55,8.87-11.68,8.87-11.68s-3.1-11.63-5.1-17.24c-1.18-3.29-4.7-18.56-4.7-18.56L95,25.88S99.89,13.77,102.54,11.63Z"/><path class="cls-2" d="M121,68c12.36-7.42,13.5-10.06,13.5-10.06s-3.11-11.63-5.11-17.24c-1-2.92-3.94-13.53-4.57-15.86,0,0-.85-3.82-1.35-5.31a29.13,29.13,0,0,0-3.46,1l3.46-3c1.46-1.15,3.8.54,4,1.41,1.4,5.13,5.36,18,5.36,18s5,14.62,5.84,19.68c.2,1.11,1,2.59-.77,4.47-2.79,3-6.55,3.87-12.7,7.5-8.53,5-20.92,14.93-20.92,14.93S115.88,71,121,68Z"/><path class="cls-2" d="M112.58,64c2.57-2.9,10.74-9.19,10.74-9.19s-3.11-11.62-5.11-17.23c-.87-2.45-3-10.25-4.1-14.12h0s-1.54-5.46-1.75-7.13a17.93,17.93,0,0,0-2.76.68l2.48-2c1.64-1.33,4-.06,4.23.8,1.41,5.13,5.36,18,5.36,18s5,14.62,5.85,19.68c.19,1.12.79,2.45-.77,4.47-2.31,3-9.49,6.15-11.84,8.2-3.89,3.4-14.54,15.83-14.54,15.83S109.35,67.66,112.58,64Z"/><ellipse class="cls-2" cx="73.51" cy="29.39" rx="8.9" ry="11.38"/><text class="cls-3" transform="translate(156.46 67.28)">Academic</text><path class="cls-2" d="M163.16,73V86.28c0,3.27,1.18,4.32,2.64,4.32s2.68-1,2.68-4.32V73h3.69V85.73c0,5.23-2.37,7.68-6.38,7.68-4.25,0-6.31-2.5-6.31-7.53V73Z"/><path class="cls-2" d="M176.16,93.17V73h3.41l3.88,8.62c.83,1.84,2,4.46,2.71,6.41h.07c-.19-2.59-.4-5.71-.4-9.32V73h3.26V93.17h-3.41l-3.92-8.6a55.91,55.91,0,0,1-2.55-6.43h-.07c.16,2.33.28,5.2.28,9.38v5.65Z"/><path class="cls-2" d="M196.84,73V93.17h-3.68V73Z"/><path class="cls-2" d="M204.42,93.17,199.18,73h4L205.14,82c.46,2.22,1,4.89,1.39,7.35h.1c.32-2.5.82-5.09,1.29-7.43l1.88-9h4l-5.35,20.21Z"/><path class="cls-2" d="M225.26,84h-5.53v6.43H226v2.78h-9.95V73h9.54v2.77h-5.86v5.55h5.53Z"/><path class="cls-2" d="M229,73.25a23.59,23.59,0,0,1,4.44-.39c2.39,0,4.39.37,5.76,1.48A4.91,4.91,0,0,1,241,78.43a5.32,5.32,0,0,1-3.65,5.12v.06c1.64.51,2.48,1.85,3,4.25a27.14,27.14,0,0,0,1.41,5.31h-3.81a24,24,0,0,1-1.2-4.91c-.45-2.63-1.31-3.49-3.15-3.49h-.84v8.4H229Zm3.67,9h.95a3.38,3.38,0,0,0,3.6-3.54c0-2-.92-3.33-3.32-3.37a4.77,4.77,0,0,0-1.23.12Z"/><path class="cls-2" d="M243.76,89.76a8.8,8.8,0,0,0,3.6.8c2.27,0,3.51-1.15,3.51-2.81s-1.15-2.55-3.05-3.69c-2.57-1.43-4.38-3.45-4.38-5.63,0-3.16,2.47-5.66,6.81-5.66a7.86,7.86,0,0,1,3.47.74L253,76.26a5.87,5.87,0,0,0-2.88-.69c-2.09,0-3.08,1.23-3.08,2.45,0,1.56.93,2.28,3.3,3.61,3,1.66,4.12,3.62,4.12,5.79,0,3.62-3,5.93-7.15,5.93a10.07,10.07,0,0,1-4.21-.84Z"/><path class="cls-2" d="M261,73V93.17h-3.68V73Z"/><path class="cls-2" d="M267.74,75.89h-4.17V73h12v2.93h-4.19V93.17h-3.68Z"/><path class="cls-2" d="M282,93.17v-8.1L276.9,73h3.92l1.79,4.92c.5,1.35,1,2.9,1.45,4.42h.07c.37-1.5.85-3,1.36-4.51L287.13,73H291l-5.25,12v8.23Z"/><path class="cls-2" d="M309.49,93.17c-.38-.46-.72-.83-1.31-1.58a7.48,7.48,0,0,1-5,1.82c-4,0-6.14-2.63-6.14-5.63,0-2.33,1.24-4.23,3.6-5.65l0-.07a7.06,7.06,0,0,1-1.71-4.45c0-2.62,2-4.9,5.34-4.9,2.58,0,4.64,1.61,4.64,4.36,0,1.91-.82,3.56-4,5.47v.12c.95,1.29,2.57,3.44,3.87,4.93A12.27,12.27,0,0,0,310,82.37h3.17a13.61,13.61,0,0,1-2.74,7.22c.62.73,1.65,1.91,3.13,3.58Zm-2.81-3.5c-1.56-1.79-3.22-3.88-4.58-5.65a4.44,4.44,0,0,0-1.66,3.38A3.35,3.35,0,0,0,303.78,91,3.66,3.66,0,0,0,306.68,89.67Zm-4.47-12.22a5.2,5.2,0,0,0,1.22,3.33c1.61-1.08,2.35-2.21,2.35-3.56,0-1-.39-2.29-1.71-2.29S302.21,76.05,302.21,77.45Z"/><path class="cls-2" d="M332,92.85a9.54,9.54,0,0,1-3.42.5c-5.3,0-8.33-3.76-8.33-10,0-7.78,4.72-10.57,8.86-10.57a7.08,7.08,0,0,1,3,.52L331.48,76a5.15,5.15,0,0,0-2.2-.42c-2.54,0-5.12,2-5.12,7.54s2.34,7.39,5.14,7.39a7.58,7.58,0,0,0,2.29-.36Z"/><path class="cls-2" d="M347.17,82.81c0,7.6-3.06,10.6-7.17,10.6-4.63,0-6.94-4.27-6.94-10.38s2.64-10.32,7.3-10.32C345.23,72.71,347.17,77.35,347.17,82.81Zm-10.28.25c0,4.4,1,7.56,3.3,7.56s3.15-3.64,3.15-7.68c0-3.66-.7-7.43-3.19-7.43C337.85,75.51,336.89,78.83,336.89,83.06Z"/><path class="cls-2" d="M350.17,73h3.68v17.5h6.21v2.71h-9.89Z"/><path class="cls-2" d="M362.72,73h3.68v17.5h6.21v2.71h-9.89Z"/><path class="cls-2" d="M384.48,84H379v6.43h6.27v2.78h-10V73h9.54v2.77H379v5.55h5.53Z"/><path class="cls-2" d="M400.46,92.65a15.74,15.74,0,0,1-4.5.7,8.33,8.33,0,0,1-5.89-2c-1.86-1.64-2.95-4.53-2.91-8.12.08-7.59,4.81-10.48,9.36-10.48a9.33,9.33,0,0,1,3.59.6l-.7,2.76a6.43,6.43,0,0,0-2.67-.48c-3,0-5.75,1.93-5.75,7.64,0,5.47,2.42,7.34,4.84,7.34a3.57,3.57,0,0,0,1.22-.16V84.82h-2.49V82.19h5.9Z"/><path class="cls-2" d="M413.17,84h-5.53v6.43h6.27v2.78H404V73h9.54v2.77h-5.86v5.55h5.53Z"/></g></g></svg>